<?xml version="1.0" encoding="UTF-8"?>
<svg version="1.1" xmlns="http://www.w3.org/2000/svg" width="512" height="512">
<path d="M0 0 C1.44212105 -0.0049926 1.44212105 -0.0049926 2.91337585 -0.01008606 C4.93793259 -0.01512454 6.96249755 -0.01749534 8.98706055 -0.01733398 C12.05466658 -0.01951733 15.12191069 -0.03769758 18.18945312 -0.05664062 C20.16796754 -0.05957597 22.14648363 -0.06155982 24.125 -0.0625 C25.47867424 -0.07327827 25.47867424 -0.07327827 26.85969543 -0.08427429 C37.11271257 -0.04819354 48.1881997 0.79898251 55.890625 8.21875 C59.61331026 12.29793551 62.72293691 16.56078338 65.76171875 21.16796875 C66.87844158 22.38395583 68.00435755 23.59153105 69.13671875 24.79296875 C81.00622087 38.21620398 82.18296651 55.30909005 82.96484375 72.3671875 C83.05182731 74.09589134 83.13963214 75.82455402 83.22821045 77.55317688 C83.41013453 81.15240419 83.58412997 84.7518949 83.75195312 88.35180664 C83.96629405 92.94167989 84.19769811 97.53049653 84.43468094 102.1192503 C84.61719059 105.68022787 84.79212475 109.24154612 84.96468353 112.80301857 C85.04725284 114.49462357 85.13176967 116.18613479 85.2183609 117.87753868 C86.38416123 140.92308379 86.38416123 140.92308379 82.69921875 148.29296875 C82.33699219 149.03804687 81.97476563 149.783125 81.6015625 150.55078125 C81.32441406 151.08445312 81.04726563 151.618125 80.76171875 152.16796875 C81.80070313 152.66425781 82.8396875 153.16054688 83.91015625 153.671875 C101.49452965 162.18534685 114.96913691 170.97827305 121.81518555 190.11230469 C123.27269657 195.34802682 123.1062272 200.68847272 123.1328125 206.0859375 C123.14184097 207.22074051 123.15086945 208.35554352 123.16017151 209.5247345 C123.174632 211.91416804 123.18355025 214.30364081 123.18725586 216.69311523 C123.19921402 220.35402119 123.2484952 224.01327428 123.29882812 227.67382812 C123.30828598 229.99868971 123.31552406 232.32356161 123.3203125 234.6484375 C123.33984482 235.7432695 123.35937714 236.8381015 123.37950134 237.96611023 C123.37342361 238.98429337 123.36734589 240.0024765 123.36108398 241.05151367 C123.36615463 241.94529221 123.37122528 242.83907074 123.37644958 243.75993347 C122.46411245 247.33375778 120.86279867 248.22449215 117.76171875 250.16796875 C114.75293369 250.55570003 112.11324257 250.71317924 109.10778809 250.68263245 C108.23724714 250.68957797 107.36670619 250.6965235 106.46978521 250.7036795 C103.5531638 250.72197382 100.63735355 250.71167845 97.72070312 250.70141602 C95.62957652 250.7084732 93.53845503 250.71721737 91.44734192 250.7275238 C85.76764783 250.75004861 80.08823199 250.74707096 74.40851021 250.73820233 C69.66919034 250.73309714 64.92992297 250.74038112 60.1906085 250.74767441 C49.01227968 250.7646829 37.83408734 250.76109752 26.65576172 250.74438477 C15.11707679 250.72745655 3.57876996 250.74330569 -7.95987368 250.77560765 C-17.86233463 250.80228068 -27.76467772 250.80958589 -37.667171 250.80109257 C-43.58344127 250.79615743 -49.4994839 250.79841103 -55.41572571 250.81888008 C-60.97757615 250.83720151 -66.53888136 250.83132149 -72.10070229 250.80668068 C-74.1433262 250.80166185 -76.18599141 250.8051902 -78.22858238 250.81782913 C-81.01446961 250.83370537 -83.79854945 250.81886045 -86.58435059 250.79615784 C-87.39514777 250.80799357 -88.20594495 250.81982929 -89.04131174 250.83202368 C-93.12894575 250.76421603 -95.00189759 250.35638385 -98.24031067 247.77513123 C-100.38636051 244.97473933 -100.86234852 243.84734115 -100.85351562 240.38452148 C-100.86282104 239.46263535 -100.87212646 238.54074921 -100.88171387 237.59092712 C-100.8653186 236.6044368 -100.84892334 235.61794647 -100.83203125 234.6015625 C-100.83207153 233.57168716 -100.83211182 232.54181183 -100.83215332 231.48072815 C-100.82679707 229.3011363 -100.80921001 227.12154501 -100.78027344 224.94213867 C-100.73873028 221.641148 -100.73918281 218.34222153 -100.74609375 215.04101562 C-100.69268437 197.36284556 -99.22759772 182.94233363 -86.734375 169.43359375 C-79.73846927 163.08363237 -66.82961117 153.16796875 -57.23828125 153.16796875 C-57.51542969 152.636875 -57.79257812 152.10578125 -58.078125 151.55859375 C-58.44035156 150.8521875 -58.80257812 150.14578125 -59.17578125 149.41796875 C-59.53542969 148.721875 -59.89507812 148.02578125 -60.265625 147.30859375 C-62.30797105 142.81379199 -62.42659578 138.54272271 -62.41796875 133.66015625 C-62.41675018 132.85279022 -62.41553162 132.04542419 -62.41427612 131.21359253 C-62.29272806 117.83532248 -61.40852558 104.4677135 -60.63916016 91.11425781 C-60.40709853 87.08425724 -60.18565483 83.05375243 -59.96714973 79.0229969 C-59.79493671 75.87055457 -59.61669734 72.7184737 -59.43676376 69.56646347 C-59.35274748 68.08129395 -59.27060068 66.59601723 -59.19052505 65.11063004 C-58.0766301 44.59963034 -55.77854572 26.52862083 -40.17578125 11.76171875 C-28.24011436 1.94367018 -14.97948232 0.01834795 0 0 Z " fill="#000000" transform="translate(389.23828125,256.83203125)"/>
<path d="M0 0 C1.20694016 -0.0099852 1.20694016 -0.0099852 2.43826294 -0.02017212 C4.12727602 -0.03022004 5.81632816 -0.0349916 7.50537109 -0.03466797 C10.05764555 -0.0390408 12.60818647 -0.07544153 15.16015625 -0.11328125 C27.17926212 -0.19710651 37.379458 0.74443625 46.5 9.421875 C48.65801592 11.85834458 50.24994004 14.42816166 51.85546875 17.25 C53.39040505 19.6396676 55.17238468 21.53286186 57.1328125 23.5859375 C63.77289703 30.84107712 69.02909726 40.77043544 69.28125 50.73046875 C69.03827842 57.30323497 69.03827842 57.30323497 71.671875 62.91796875 C73.46952618 63.81679434 75.33361148 64.57863539 77.1953125 65.3359375 C82.29774033 71.78110949 82.42135808 77.1782402 82.5078125 85.0859375 C82.53681641 85.95476562 82.56582031 86.82359375 82.59570312 87.71875 C82.66090286 94.39921539 81.42873484 99.93275516 76.71191406 104.8972168 C72.93028392 108.19298815 69.95725852 109.47957596 65.0078125 109.3984375 C63.7496875 109.3778125 62.4915625 109.3571875 61.1953125 109.3359375 C60.9890625 110.6146875 60.7828125 111.8934375 60.5703125 113.2109375 C58.53145998 122.24418685 53.07211814 128.90457717 46.63671875 135.328125 C44.9700396 137.20842017 44.9700396 137.20842017 45.3046875 139.4296875 C47.19888976 143.48394498 50.79273304 145.74000086 54.76953125 147.4296875 C59.27399984 148.6212915 63.68477748 148.88460773 68.3203125 149.2109375 C83.64357509 150.52677093 95.03643982 154.63903401 105.9453125 165.9609375 C118.75074469 181.75225171 119.72479842 199.9913631 119.64135742 219.41894531 C119.63272836 222.4908911 119.66191031 225.56104375 119.69335938 228.6328125 C119.69496892 230.59895778 119.69439859 232.56510634 119.69140625 234.53125 C119.70264023 235.44270782 119.71387421 236.35416565 119.72544861 237.29324341 C119.67960832 241.4572541 119.54574129 243.75611267 117.35180664 247.38623047 C113.37470861 250.98196294 109.15299403 250.48196925 104.08560181 250.47637939 C102.83135629 250.48083608 102.83135629 250.48083608 101.55177248 250.4853828 C98.73974583 250.4940796 95.9277617 250.49557887 93.11572266 250.49707031 C91.10371306 250.50169774 89.09170434 250.5067223 87.07969666 250.51211548 C81.60657297 250.52524758 76.13346156 250.53168587 70.66032457 250.53612614 C67.24290202 250.53905519 63.82548284 250.54315965 60.40806198 250.54763031 C49.72133354 250.56130657 39.03461278 250.57097294 28.34787619 250.5748322 C16.00091733 250.57931523 3.65406904 250.59687397 -8.69285619 250.6258328 C-18.23007319 250.64742731 -27.76725903 250.65753527 -37.30450022 250.65887332 C-43.00389962 250.65992283 -48.7031951 250.66586178 -54.40256882 250.68369293 C-59.76234575 250.70013533 -65.1219402 250.70234777 -70.48173332 250.69355392 C-72.45018565 250.69278153 -74.41864764 250.69715283 -76.38707542 250.70701218 C-79.07193916 250.71967261 -81.75615078 250.71388716 -84.44100952 250.70343018 C-85.61256027 250.71551478 -85.61256027 250.71551478 -86.80777872 250.72784352 C-91.31874709 250.68668245 -94.23844935 250.15960721 -97.8046875 247.3359375 C-99.87806589 244.22586992 -100.05817095 243.52582718 -100.0793457 239.99487305 C-100.08887772 239.11933273 -100.09840973 238.24379242 -100.10823059 237.34172058 C-100.10731918 236.39492935 -100.10640778 235.44813812 -100.10546875 234.47265625 C-100.10975388 233.48908646 -100.114039 232.50551666 -100.11845398 231.49214172 C-100.12420365 229.40321623 -100.12469288 227.31427071 -100.12036133 225.2253418 C-100.11723731 222.07369235 -100.14052621 218.92301521 -100.16601562 215.77148438 C-100.23145981 195.66315989 -97.92571983 177.66853539 -83.25390625 162.5234375 C-72.23841087 152.68503652 -60.92807992 150.0395801 -46.57226562 149.25195312 C-39.78835216 148.75630188 -33.37412173 147.39559676 -28.078125 142.85595703 C-26.59447213 141.34558389 -26.59447213 141.34558389 -26.39453125 138.89453125 C-26.91684702 135.63627574 -28.00226892 134.66463082 -30.3671875 132.3984375 C-36.05906836 126.37174012 -41.8046875 117.79541369 -41.8046875 109.3359375 C-43.5990625 109.42875 -43.5990625 109.42875 -45.4296875 109.5234375 C-50.43495814 109.48818912 -53.8398486 108.28237041 -57.47265625 104.68359375 C-62.95303628 98.52630217 -63.03865942 93.67400682 -63.1171875 85.6484375 C-63.14619141 84.67970703 -63.17519531 83.71097656 -63.20507812 82.71289062 C-63.26068662 76.3863547 -62.48500663 71.58869797 -58.8046875 66.3359375 C-56.09588495 63.75927166 -54.34153967 62.51488822 -50.8046875 61.3359375 C-50.7953418 60.73233398 -50.78599609 60.12873047 -50.77636719 59.50683594 C-50.43747282 42.07703334 -48.95568719 27.59964293 -36.7734375 14.08203125 C-26.44650031 4.22279955 -14.03756037 0.0416433 0 0 Z " fill="#010101" transform="translate(102.8046875,4.6640625)"/>
<path d="M0 0 C3.00642899 2.12188594 5.5343855 4.64573429 8.12109375 7.25390625 C9.23823509 8.35532204 9.23823509 8.35532204 10.37794495 9.47898865 C11.94431873 11.0325438 13.50301955 12.59386871 15.05444336 14.16235352 C17.42993942 16.5548852 19.84035369 18.90771585 22.25585938 21.25976562 C23.77569985 22.77638205 25.29335496 24.29519231 26.80859375 25.81640625 C27.53034286 26.51568741 28.25209198 27.21496857 28.99571228 27.93544006 C32.23426331 31.26631794 34.4336103 33.57286503 34.55493164 38.35913086 C34 42 34 42 32.3125 44.4375 C29.70467359 46.19954487 28.14257113 46.84670385 25 47 C21.26434139 45.8060638 18.95503007 44.31907433 16.23046875 41.5234375 C15.23950195 40.51796875 15.23950195 40.51796875 14.22851562 39.4921875 C13.55498047 38.79351562 12.88144531 38.09484375 12.1875 37.375 C11.14819336 36.31539063 11.14819336 36.31539063 10.08789062 35.234375 C8.38493121 33.49618194 6.68938808 31.75136939 5 30 C4.92275661 36.36385142 4.87091097 42.72757837 4.83520508 49.09179688 C4.82029091 51.24841833 4.79995237 53.40501042 4.77368164 55.56152344 C4.57851841 72.01646229 5.04717526 88.23589146 10.5625 103.9375 C10.93604614 105.02345459 10.93604614 105.02345459 11.31713867 106.13134766 C16.29453464 119.90514367 23.5558284 132.81277659 33 144 C33.83015625 144.99257813 34.6603125 145.98515625 35.515625 147.0078125 C55.33801311 169.99987282 83.95749174 184.36119329 114 188 C117.23735912 188.14468073 120.47117561 188.15389144 123.71142578 188.15771484 C124.66026642 188.16279556 125.60910706 188.16787628 126.58670044 188.17311096 C128.63661925 188.1837695 130.68654936 188.19240718 132.73648453 188.19923019 C135.98135617 188.211069 139.2260977 188.23053156 142.47091675 188.25234985 C151.69296966 188.31382063 160.91500567 188.36809203 170.13720703 188.40136719 C175.78638116 188.4222952 181.43531171 188.45757372 187.08434677 188.50212479 C189.23490411 188.51628878 191.38550447 188.52500812 193.53610611 188.52817917 C196.54011889 188.53308045 199.54348221 188.55621543 202.54736328 188.58349609 C203.8784613 188.57898689 203.8784613 188.57898689 205.2364502 188.5743866 C211.20934477 188.65505586 214.66469724 189.66469724 219 194 C219.4363269 197.85422094 219.40346589 200.23563955 217.57902527 203.6920166 C213.73053111 207.13605445 210.36520587 206.68722428 205.3605957 206.61523438 C204.38270081 206.62078339 203.40480591 206.6263324 202.39727783 206.63204956 C199.15628364 206.64388015 195.91667841 206.61951274 192.67578125 206.59375 C190.41293908 206.59203798 188.15009493 206.59210551 185.88725281 206.59387207 C181.1332207 206.59221623 176.37965858 206.57348672 171.62573242 206.54199219 C165.57617545 206.50260837 159.52724257 206.49791136 153.47758198 206.50545502 C148.79563332 206.50855071 144.11382093 206.49630782 139.43190575 206.47932434 C137.20472255 206.47235891 134.97752389 206.46916184 132.75032997 206.47001648 C91.86632564 206.44620807 56.02790164 192.97394255 26.75 164.1875 C9.4164129 146.70354429 -2.33818878 125.15310338 -8.75 101.4375 C-8.94883789 100.70684326 -9.14767578 99.97618652 -9.35253906 99.22338867 C-13.25135936 83.97084255 -13.40352059 68.76929046 -13.625 53.125 C-13.66326215 50.87628832 -13.70231838 48.62759001 -13.7421875 46.37890625 C-13.83727809 40.91939111 -13.92257459 35.45979277 -14 30 C-14.41773682 30.4439209 -14.83547363 30.8878418 -15.26586914 31.34521484 C-17.18455474 33.368479 -19.12308383 35.37160686 -21.0625 37.375 C-21.71927734 38.07367188 -22.37605469 38.77234375 -23.05273438 39.4921875 C-27.16721062 43.70800553 -30.08602891 46.18081081 -36 47 C-41.52272727 44.95454545 -41.52272727 44.95454545 -43 42 C-43.91212008 35.38712944 -43.91212008 35.38712944 -41.8659668 32.27539062 C-41.33656494 31.69982422 -40.80716309 31.12425781 -40.26171875 30.53125 C-39.6260498 29.83950684 -38.99038086 29.14776367 -38.33544922 28.43505859 C-33.93973264 23.85186006 -29.50128264 19.31532841 -25.01049805 14.82519531 C-23.30032134 13.11280558 -21.59834064 11.39252956 -19.89648438 9.671875 C-18.80257234 8.57503291 -17.70818822 7.4786614 -16.61328125 6.3828125 C-16.10904129 5.87138702 -15.60480133 5.35996155 -15.08528137 4.83303833 C-10.00844771 -0.21109267 -7.19547793 -2.06500071 0 0 Z " fill="#000000" transform="translate(43,286)"/>
<path d="M0 0 C0.96814133 -0.00525696 1.93628265 -0.01051392 2.9337616 -0.01593018 C6.14195815 -0.02915443 9.34965948 -0.02037438 12.55786133 -0.01025391 C14.79828486 -0.01227607 17.03870775 -0.0151887 19.27912903 -0.01895142 C23.98595415 -0.02337983 28.69260875 -0.01693487 33.39941406 -0.00292969 C39.38840426 0.01403429 45.37698729 0.004406 51.36596203 -0.01364708 C56.00156111 -0.02458088 60.63706666 -0.02099279 65.27266884 -0.0132637 C67.47753257 -0.01128138 69.68240518 -0.01365062 71.88725853 -0.02070236 C113.33442431 -0.12403697 149.36304414 13.82899747 179.05004883 42.96289062 C193.9049308 58.0608713 204.43376495 76.89699264 211.26489258 96.82568359 C211.54284668 97.62240479 211.82080078 98.41912598 212.10717773 99.23999023 C217.76506614 116.56662779 217.9712629 133.88304492 218.13989258 151.95068359 C218.17313849 154.42661228 218.20763459 156.90252451 218.2434082 159.37841797 C218.32746671 165.38155987 218.39615551 171.3847199 218.45239258 177.38818359 C218.94118896 176.87843994 219.42998535 176.36869629 219.93359375 175.84350586 C222.15843728 173.53541182 224.39884298 171.24304095 226.63989258 168.95068359 C227.40881836 168.14824219 228.17774414 167.34580078 228.9699707 166.51904297 C229.72084961 165.75527344 230.47172852 164.99150391 231.24536133 164.20458984 C231.93138428 163.49761963 232.61740723 162.79064941 233.32421875 162.06225586 C235.76609732 160.14141597 237.38058433 159.66772283 240.45239258 159.38818359 C243.41673547 160.16455911 245.0610641 161.0103492 247.26489258 163.13818359 C248.94767543 166.32661426 249.14100701 167.80738854 248.45239258 171.38818359 C243.25610719 178.72177902 236.07863448 185.08268275 229.77319336 191.47241211 C228.55304535 192.71431926 227.33921223 193.96246045 226.1315918 195.21655273 C224.36748388 197.0475948 222.58443431 198.85813463 220.79614258 200.66552734 C220.26363892 201.22586166 219.73113525 201.78619598 219.18249512 202.36351013 C216.40000373 205.13108178 214.72931457 206.30742726 210.8684082 207.43334961 C203.824823 207.34022045 199.88706323 202.10500571 195.21801758 197.38427734 C194.5393866 196.70518814 193.86075562 196.02609894 193.16156006 195.32643127 C191.73382925 193.89568859 190.30852037 192.46252546 188.88549805 191.02709961 C186.70130981 188.82459175 184.50916176 186.63025424 182.31567383 184.43701172 C180.92848109 183.04490575 179.54174619 181.65234338 178.15551758 180.25927734 C177.49827698 179.60092392 176.84103638 178.9425705 176.16387939 178.26426697 C175.55945007 177.65345779 174.95502075 177.04264862 174.33227539 176.41333008 C173.79886536 175.87610825 173.26545532 175.33888641 172.71588135 174.78538513 C170.81354907 172.68173241 170.45694733 171.42917633 170.13989258 168.57568359 C170.53035309 164.59298641 171.56605164 163.1185061 174.45239258 160.38818359 C177.41462058 159.24886513 178.85699305 159.1969315 181.87695312 160.16699219 C184.57349906 161.44560843 186.14916598 162.7379163 188.22192383 164.86474609 C188.88256836 165.53505859 189.54321289 166.20537109 190.22387695 166.89599609 C190.89741211 167.59466797 191.57094727 168.29333984 192.26489258 169.01318359 C192.95776367 169.71958984 193.65063477 170.42599609 194.36450195 171.15380859 C196.06746137 172.89200166 197.7630045 174.6368142 199.45239258 176.38818359 C199.55547961 169.63376208 199.62454845 162.87954973 199.67211914 156.12451172 C199.69199117 153.83602318 199.7190983 151.54758371 199.75415039 149.25927734 C200.30207053 112.51639757 190.14512124 81.30359854 164.78979492 54.20385742 C143.06474272 31.92081019 111.33453752 18.37213795 80.28686523 17.88989258 C77.27816765 17.86437558 74.27073457 17.85973431 71.26195145 17.87176323 C68.03269672 17.88461057 64.8042696 17.87291368 61.57504272 17.85572815 C55.89883319 17.82930416 50.22283421 17.82342312 44.54656982 17.8248291 C35.41524933 17.82707823 26.2841848 17.81294887 17.15296555 17.76924324 C13.97705141 17.75942602 10.80154635 17.76810158 7.62564087 17.77793884 C5.68589 17.77179785 3.74614136 17.76488719 1.80639648 17.75708008 C0.48955116 17.76865898 0.48955116 17.76865898 -0.85389709 17.7804718 C-5.58585943 17.74111235 -8.69263278 17.44378843 -12.54760742 14.38818359 C-14.6653536 11.69287027 -14.54507615 10.31604227 -14.42260742 6.82568359 C-13.54760742 3.38818359 -13.54760742 3.38818359 -12.08964539 1.69760132 C-8.15314866 -0.33010978 -4.36611188 -0.02905056 0 0 Z " fill="#000000" transform="translate(226.547607421875,19.61181640625)"/>
<path d="M0 0 C1.79709412 -0.0099852 1.79709412 -0.0099852 3.63049316 -0.02017212 C6.1587572 -0.03027875 8.68704781 -0.03498976 11.21533203 -0.03466797 C15.08019864 -0.03904715 18.94392854 -0.07540684 22.80859375 -0.11328125 C25.26822527 -0.11914858 27.7278622 -0.12311853 30.1875 -0.125 C31.91740173 -0.14655655 31.91740173 -0.14655655 33.68225098 -0.16854858 C39.94039984 -0.13293661 43.87897809 0.0456291 48.59375 4.3359375 C50.09765625 6.5546875 50.09765625 6.5546875 51.15625 8.8359375 C53.15297032 12.75307035 55.11306355 14.61930417 58.59375 17.3359375 C67.80956323 28.19913704 69.20382618 41.49618625 69.640625 55.20703125 C69.70073982 56.70196753 69.76231476 58.19684572 69.82525635 59.69166565 C69.98533535 63.5934095 70.1243559 67.49562596 70.25909424 71.39831543 C70.37164428 74.55604605 70.49917679 77.71308637 70.6275444 80.87020779 C70.78265165 84.69062654 70.93146395 88.51127976 71.078125 92.33203125 C71.10528343 93.03906126 71.13244186 93.74609127 71.16042328 94.47454643 C71.33413 99.09441036 71.46735239 103.71449732 71.59375 108.3359375 C71.67888855 110.29951706 71.67888855 110.29951706 71.76574707 112.30276489 C71.82031067 114.17555618 71.82031067 114.17555618 71.87597656 116.08618164 C71.9177301 117.19474014 71.95948364 118.30329865 72.00250244 119.44544983 C71.49339682 123.04558374 70.42929596 124.13866821 67.59375 126.3359375 C63.51720883 127.78410737 61.96720488 127.50308379 57.98046875 125.71875 C56.73721693 124.98308243 55.50417243 124.22992553 54.28125 123.4609375 C53.64896484 123.08324219 53.01667969 122.70554687 52.36523438 122.31640625 C47.86114387 119.60333137 47.86114387 119.60333137 46.59375 118.3359375 C45.99701097 115.23696323 45.99479352 112.434671 46.59375 109.3359375 C48.07155353 107.22228379 49.77002512 105.53281237 51.578125 103.6953125 C54.02658034 100.82929114 55.72955897 97.74868556 57.40625 94.3984375 C57.96957031 93.27566406 58.53289062 92.15289062 59.11328125 90.99609375 C62.74892959 82.00769667 62.880213 73.35428135 62.79956055 63.77758789 C62.78114992 61.51111738 62.77905245 59.24505363 62.77929688 56.97851562 C62.98034222 49.06252119 62.98034222 49.06252119 61.59375 41.3359375 C60.459375 41.10519531 59.325 40.87445313 58.15625 40.63671875 C47.04982286 38.27603344 39.02768547 36.0499328 31.8203125 26.7890625 C29.98590876 24.61581985 28.75957214 24.35419985 25.93359375 24.04296875 C21.76180305 24.4089153 18.75045893 26.03599931 15.15625 28.0234375 C7.49924494 32.0571021 -0.10319891 34.89386365 -8.40625 37.3359375 C-9.13972656 37.55894531 -9.87320313 37.78195312 -10.62890625 38.01171875 C-16.09034905 39.53071876 -21.70963328 40.04971964 -27.33203125 40.67578125 C-30.67967282 41.39465218 -31.50746446 41.57561449 -33.40625 44.3359375 C-33.71759389 46.98584083 -33.85048813 49.3956381 -33.83984375 52.046875 C-33.84770653 53.19284653 -33.84770653 53.19284653 -33.85572815 54.36196899 C-33.86215476 55.98430164 -33.86080305 57.60668084 -33.85229492 59.22900391 C-33.84389823 61.66788349 -33.87234637 64.10432763 -33.90429688 66.54296875 C-33.96595737 80.0941615 -31.72037482 92.20968222 -23.40625 103.3359375 C-22.30488883 104.38223061 -21.1811989 105.40579293 -20.03125 106.3984375 C-17.56353877 109.15992387 -16.72546026 110.15899036 -16.09375 113.6484375 C-16.25061283 116.3566282 -16.80305665 117.77036403 -18.79199219 119.63525391 C-20.62829722 121.02879503 -22.50153704 122.25937074 -24.46875 123.4609375 C-25.12383545 123.86352783 -25.7789209 124.26611816 -26.45385742 124.6809082 C-31.09320135 127.24933015 -34.11171505 127.77096616 -39.40625 126.3359375 C-41.84375 124.5234375 -41.84375 124.5234375 -43.40625 121.3359375 C-44.10288418 112.20042805 -43.12346835 102.87870391 -42.56640625 93.74609375 C-42.4788449 92.26982734 -42.39156535 90.79354419 -42.30455017 89.31724548 C-42.12258111 86.24204459 -41.93833401 83.16699242 -41.75219727 80.09204102 C-41.5159167 76.18827958 -41.28369098 72.28429115 -41.0529871 68.38019657 C-40.82976537 64.60624096 -40.60436676 60.83241615 -40.37890625 57.05859375 C-40.33727922 56.3584572 -40.2956522 55.65832066 -40.25276375 54.93696785 C-39.9823273 50.4025064 -39.69847403 45.8690586 -39.40625 41.3359375 C-39.331716 40.1265451 -39.25718201 38.91715271 -39.1803894 37.67111206 C-39.06487228 35.9591716 -39.06487228 35.9591716 -38.94702148 34.21264648 C-38.88183823 33.21466537 -38.81665497 32.21668427 -38.74949646 31.1884613 C-37.56477471 21.34292058 -32.85852268 12.76234703 -25.1640625 6.515625 C-16.91510138 0.76634907 -9.88289537 0.01907262 0 0 Z " fill="#85503D" transform="translate(386.40625,273.6640625)"/>
<path d="M0 0 C1.85591313 1.25358838 3.3825021 2.55678432 4.98828125 4.11328125 C11.23860117 9.61087447 19.0208204 12.14844043 26.92578125 14.30078125 C27.00104468 18.35342743 27.05489666 22.40579205 27.09057617 26.45898438 C27.10548048 27.83210351 27.12581122 29.20517664 27.15209961 30.578125 C27.44070616 46.06101782 25.2320896 57.4736978 14.67578125 69.05078125 C6.12311709 77.223327 -3.8717458 78.80828117 -15.28125 78.57421875 C-25.17829565 77.86073451 -33.34525945 72.68273716 -39.828125 65.3046875 C-47.82221469 54.38544218 -48.64711826 42.00935623 -48.32421875 28.98828125 C-48.30408936 27.55406187 -48.28585015 26.11981467 -48.26953125 24.68554688 C-48.22612216 21.22336561 -48.15746589 17.76226147 -48.07421875 14.30078125 C-46.81609375 14.08164063 -45.55796875 13.8625 -44.26171875 13.63671875 C-29.95741913 11.03172407 -16.72758616 7.41185022 -4.08984375 -0.01171875 C-2.07421875 -0.69921875 -2.07421875 -0.69921875 0 0 Z " fill="#FCCBBD" transform="translate(123.07421875,59.69921875)"/>
<path d="M0 0 C0.77923828 1.59328125 0.77923828 1.59328125 1.57421875 3.21875 C3.67888129 7.49836535 5.82678684 11.75482687 8 16 C8.47308594 16.92683594 8.94617188 17.85367188 9.43359375 18.80859375 C11.27266836 22.09480904 12.44703594 23.78111839 16 25.1875 C19.47877598 24.9700765 21.06666043 23.77544237 24 22 C26.1484375 22.91015625 26.1484375 22.91015625 28 24 C25.52570102 39.14799834 22.51583484 54.05770192 19 69 C5.14 69 -8.72 69 -23 69 C-23.33 63.72 -23.66 58.44 -24 53 C-24.33 51.68 -24.66 50.36 -25 49 C-26.41154099 48.72251758 -27.82979799 48.47906484 -29.25 48.25 C-30.03890625 48.11078125 -30.8278125 47.9715625 -31.640625 47.828125 C-34.11157327 47.82006018 -34.11157327 47.82006018 -36.25 49.4375 C-38.76455402 53.11952552 -38.670306 56.38131963 -38.75 60.75 C-38.77964844 61.54277344 -38.80929688 62.33554688 -38.83984375 63.15234375 C-38.91027787 65.10102094 -38.95743482 67.05051495 -39 69 C-43.62 69 -48.24 69 -53 69 C-53.06975043 64.84080772 -53.12920059 60.68373055 -53.16479492 56.52441406 C-53.17966762 55.11646565 -53.19997219 53.7085617 -53.22631836 52.30078125 C-53.49185073 37.72253347 -52.19416272 23.98620053 -43 12 C-34.27138052 3.19302666 -25.66199942 1.67726091 -13.70703125 1.2109375 C-9.03893692 0.94531359 -4.69586913 -0.13416769 0 0 Z " fill="#E9EAEB" transform="translate(72,169)"/>
<path d="M0 0 C4.14781922 0.22203537 8.29237017 0.48271597 12.4375 0.75 C13.60216797 0.811875 14.76683594 0.87375 15.96679688 0.9375 C27.22124184 1.69836388 35.22779379 4.68669082 43 13 C50.6460403 22.46240734 53.14580576 32.54855907 53.09765625 44.5859375 C53.0962413 45.28772125 53.09482635 45.989505 53.09336853 46.71255493 C53.0878129 48.93341504 53.07526892 51.15417084 53.0625 53.375 C53.05747926 54.88932145 53.05291736 56.4036445 53.04882812 57.91796875 C53.03871289 61.61205078 53.01912935 65.30590991 53 69 C48.38 69 43.76 69 39 69 C38.95101562 67.80761719 38.90203125 66.61523438 38.8515625 65.38671875 C38.77652396 63.82028932 38.7009766 62.25388421 38.625 60.6875 C38.5940625 59.90181641 38.563125 59.11613281 38.53125 58.30664062 C38.49257812 57.54931641 38.45390625 56.79199219 38.4140625 56.01171875 C38.3826416 55.31522217 38.3512207 54.61872559 38.31884766 53.90112305 C38.07881747 51.67467261 38.07881747 51.67467261 36 49 C31.9906885 47.93551399 31.9906885 47.93551399 28 48 C22.04843122 53.06575032 22.04843122 53.06575032 23 69 C9.14 69 -4.72 69 -19 69 C-25.66287016 38.35079727 -25.66287016 38.35079727 -28 24 C-26.68 23.34 -25.36 22.68 -24 22 C-23.484375 22.515625 -22.96875 23.03125 -22.4375 23.5625 C-19.97671014 25.26577836 -19.97671014 25.26577836 -16.5625 25.1875 C-12.53582246 23.84527415 -11.40357473 22.47570713 -9.3984375 18.80859375 C-8.70621094 17.41833984 -8.70621094 17.41833984 -8 16 C-7.30507984 14.63651872 -6.60973057 13.27325609 -5.9140625 11.91015625 C-3.90984672 7.95586889 -1.94770252 3.9823992 0 0 Z " fill="#E9EAEB" transform="translate(153,169)"/>
<path d="M0 0 C0.98742187 0.79535156 1.97484375 1.59070313 2.9921875 2.41015625 C5.33597135 3.65982278 7.67163007 4.86815521 10.0546875 6.03515625 C10.65345703 6.33421875 11.25222656 6.63328125 11.86914062 6.94140625 C15.19335852 8.58713077 18.54186423 10.05355605 21.9921875 11.41015625 C23.14955294 42.10704892 23.14955294 42.10704892 12.6796875 53.41015625 C4.2886012 61.14284346 -4.43936392 63.06083236 -15.5625 62.80859375 C-24.11581588 62.29473881 -30.64302869 58.21863934 -36.5078125 52.16015625 C-42.0019861 45.40951883 -45.15856914 37.13424552 -45.10546875 28.42578125 C-45.10224609 27.49121094 -45.09902344 26.55664062 -45.09570312 25.59375 C-45.08732422 24.62566406 -45.07894531 23.65757812 -45.0703125 22.66015625 C-45.06580078 21.67660156 -45.06128906 20.69304687 -45.05664062 19.6796875 C-45.04487733 17.25644834 -45.02843934 14.83333352 -45.0078125 12.41015625 C-41.26442299 11.31149877 -37.52430293 10.27712888 -33.73046875 9.3671875 C-24.74257682 7.17429184 -16.42675369 4.73969217 -8.26000977 0.29418945 C-4.72970719 -1.47495592 -3.57402146 -1.88912563 0 0 Z " fill="#FCCCBD" transform="translate(412.0078125,316.58984375)"/>
<path d="M0 0 C-0.02094727 0.55461914 -0.04189453 1.10923828 -0.06347656 1.68066406 C-0.14683548 4.20359023 -0.19871868 6.72622649 -0.25 9.25 C-0.28351563 10.12269531 -0.31703125 10.99539063 -0.3515625 11.89453125 C-0.50239447 17.03352249 -0.50239447 17.03352249 1.8125 21.46875 C4.51487202 23.36041041 7.21666895 25.22878933 10 27 C9.34 28.32 8.68 29.64 8 31 C7.34 31 6.68 31 6 31 C4.80937217 35.64587837 4.31798436 38.4621772 6.29150391 42.91210938 C8.20170837 46.10073263 10.21636277 49.18045368 12.3125 52.25 C13.70756427 54.35730149 15.09961147 56.46660419 16.48828125 58.578125 C17.11259033 59.50012695 17.73689941 60.42212891 18.38012695 61.37207031 C19.91906687 63.8687017 20.95023209 66.27179041 22 69 C14.06386213 69.02312764 6.12773824 69.04091723 -1.80842495 69.05181217 C-5.49314498 69.05704008 -9.17784203 69.06413605 -12.86254883 69.07543945 C-16.41570831 69.08627162 -19.96884563 69.09227753 -23.52202034 69.09487724 C-24.88045666 69.0967309 -26.23889171 69.10035038 -27.59731865 69.10573006 C-29.49382223 69.11294475 -31.39034793 69.11340809 -33.28686523 69.11352539 C-34.90902199 69.11685631 -34.90902199 69.11685631 -36.56394958 69.12025452 C-39 69 -39 69 -40 68 C-40.24502603 63.46219209 -40.22863466 58.91846088 -40.24023438 54.37475586 C-40.2498291 52.10296434 -40.28078171 49.83212142 -40.3125 47.56054688 C-40.39709936 35.95460271 -39.50471851 25.98926865 -31.26953125 17.140625 C-24.53230464 10.61828179 -9.91080838 0 0 0 Z " fill="#9CA9B7" transform="translate(345,422)"/>
<path d="M0 0 C13.30570488 3.80162997 28.58693271 10.28583641 36.45703125 22.20703125 C39.69371225 28.37159329 40.14260318 33.64536349 40.09765625 40.484375 C40.09664917 41.2077002 40.09564209 41.93102539 40.09460449 42.67626953 C40.08938887 45.36752924 40.07542762 48.05876628 40.0625 50.75 C40.041875 56.7725 40.02125 62.795 40 69 C19.54 69 -0.92 69 -22 69 C-20.59004362 66.18008723 -19.17546577 63.55926577 -17.5390625 60.8828125 C-17.06726563 60.11066406 -16.59546875 59.33851563 -16.109375 58.54296875 C-15.37460937 57.34607422 -15.37460937 57.34607422 -14.625 56.125 C-14.14289063 55.33480469 -13.66078125 54.54460937 -13.1640625 53.73046875 C-11.07654743 50.32123898 -8.98398522 46.94966546 -6.68359375 43.6796875 C-4.65751578 40.45488591 -4.36383021 38.66557792 -4.52734375 34.96875 C-5.37104386 31.454495 -7.48089578 29.51910422 -10 27 C-9.28972656 26.51789063 -8.57945312 26.03578125 -7.84765625 25.5390625 C-6.92855469 24.90742188 -6.00945312 24.27578125 -5.0625 23.625 C-4.14597656 22.99851562 -3.22945313 22.37203125 -2.28515625 21.7265625 C0.08387164 20.20228929 0.08387164 20.20228929 1 18 C1.04589339 16.05693343 1.04589339 16.05693343 0.87890625 13.8671875 C0.83056641 13.06152344 0.78222656 12.25585938 0.73242188 11.42578125 C0.67634766 10.58402344 0.62027344 9.74226563 0.5625 8.875 C0.48418945 7.60076172 0.48418945 7.60076172 0.40429688 6.30078125 C0.27448622 4.20020876 0.1378826 2.10005809 0 0 Z " fill="#9DA9B7" transform="translate(456,422)"/>
<path d="M0 0 C2.24092426 -0.00437728 4.4798815 -0.04077482 6.72045898 -0.07861328 C14.22577231 -0.13920113 20.49514903 -0.16536222 26.81225586 4.37060547 C28.37084961 6.41357422 28.37084961 6.41357422 29.24975586 8.55810547 C31.11956508 12.44400149 33.21614855 14.93320355 36.37475586 17.87060547 C41.59038651 22.85153274 44.55224871 27.66550353 45.06225586 34.93310547 C44.97975586 35.73748047 44.89725586 36.54185547 44.81225586 37.37060547 C38.18742507 38.09069577 33.21229624 36.25962537 27.81225586 32.37060547 C25.34840194 29.58589597 23.14832076 26.74346147 21.01538086 23.69873047 C18.97090206 21.22057774 18.97090206 21.22057774 16.10913086 20.25341797 C11.24775101 20.42621583 7.95658085 22.58812069 3.81225586 24.99560547 C-10.62475522 32.98233297 -24.52868497 37.94068734 -41.18774414 37.37060547 C-41.86245303 27.51235889 -40.34154332 19.89238376 -34.00024414 12.12060547 C-24.14891115 1.69970933 -13.87483433 -0.00303441 0 0 Z " fill="#85503D" transform="translate(110.187744140625,20.62939453125)"/>
<path d="M0 0 C4.10168431 0.95206566 7.94859514 1.97521482 11 5 C12.15117824 8.38078927 12.29576441 11.69915057 12.4375 15.25 C12.50130859 16.18585938 12.56511719 17.12171875 12.63085938 18.0859375 C12.7837123 20.39048936 12.90559968 22.69243664 13 25 C11.92878906 25.62648438 10.85757812 26.25296875 9.75390625 26.8984375 C8.3566101 27.72368624 6.95948341 28.54922196 5.5625 29.375 C4.85544922 29.7875 4.14839844 30.2 3.41992188 30.625 C2.74638672 31.02460938 2.07285156 31.42421875 1.37890625 31.8359375 C0.7557251 32.20251465 0.13254395 32.5690918 -0.50952148 32.94677734 C-2.16832701 33.94300753 -2.16832701 33.94300753 -3 36 C-3.6363389 40.07349709 -3.6363389 40.07349709 -3 44 C-0.63345049 46.76011135 2.04833516 48.89166797 5 51 C3.6401076 54.68771064 1.96509748 57.85243922 -0.15234375 61.16015625 C-1.06983398 62.5977832 -1.06983398 62.5977832 -2.00585938 64.06445312 C-2.64330078 65.05380859 -3.28074219 66.04316406 -3.9375 67.0625 C-4.57107422 68.05572266 -5.20464844 69.04894531 -5.85742188 70.07226562 C-9.27619165 75.41072316 -9.27619165 75.41072316 -11 78 C-11.48025635 78.76368896 -11.9605127 79.52737793 -12.45532227 80.31420898 C-12.96506592 80.87052002 -13.47480957 81.42683105 -14 82 C-15.32 82 -16.64 82 -18 82 C-17.33127575 73.18420386 -15.21306582 64.73001607 -13.18359375 56.15234375 C-12.80342276 54.52863555 -12.4237152 52.90481879 -12.04444885 51.28089905 C-11.05117088 47.03350448 -10.05165512 42.78760229 -9.05078125 38.54199219 C-8.02808962 34.19880972 -7.01137588 29.85422865 -5.99414062 25.50976562 C-4.0019031 17.00513944 -2.0030658 8.50208232 0 0 Z " fill="#7D8DA0" transform="translate(429,409)"/>
<path d="M0 0 C2.77310143 10.15814897 5.3147254 20.35063936 7.671875 30.61328125 C8.00230215 32.04440433 8.33289226 33.4754898 8.66363525 34.90653992 C9.34754289 37.86822714 10.02967816 40.83031489 10.71044922 43.79272461 C11.58365184 47.59194367 12.46119097 51.39014607 13.33997726 55.18807697 C14.01928759 58.12584123 14.69648829 61.06408856 15.37302399 64.0024929 C15.69615608 65.40490277 16.01991788 66.8071677 16.3443222 68.20928383 C16.79385417 70.15376082 17.24026832 72.09895781 17.68652344 74.04418945 C17.94093201 75.14922318 18.19534058 76.2542569 18.4574585 77.39277649 C19 80 19 80 19 82 C16.71313477 82.28759766 16.71313477 82.28759766 14 82 C12.21069336 80.07568359 12.21069336 80.07568359 10.58984375 77.3984375 C9.99236328 76.43292969 9.39488281 75.46742188 8.77929688 74.47265625 C8.17150391 73.45042969 7.56371094 72.42820312 6.9375 71.375 C5.71768009 69.38267033 4.49763411 67.39047906 3.27734375 65.3984375 C2.71257324 64.45581055 2.14780273 63.51318359 1.56591797 62.54199219 C0.28548421 60.46343336 -1.05493044 58.50557903 -2.49609375 56.5390625 C-4 54 -4 54 -3.9765625 51.86328125 C-2.76087528 49.54375004 -1.245418 48.01693274 0.625 46.1875 C3.18199342 43.3168629 3.94567879 42.34403435 4.5625 38.4375 C2.15542508 33.14193517 -2.11906156 30.91701055 -7 28 C-7.93328125 27.43796875 -8.8665625 26.8759375 -9.828125 26.296875 C-10.54484375 25.86890625 -11.2615625 25.4409375 -12 25 C-11.88513575 22.62412376 -11.75841844 20.24984829 -11.625 17.875 C-11.57859375 16.87726563 -11.57859375 16.87726563 -11.53125 15.859375 C-11.28100361 11.60518642 -10.73486859 7.90632662 -9 4 C-6.4820921 1.7790152 -3.42458155 0 0 0 Z " fill="#7D8DA0" transform="translate(372,409)"/>
<path d="M0 0 C1.71509766 0.24363281 1.71509766 0.24363281 3.46484375 0.4921875 C7.84640332 1.03807408 12.15154499 1.14895089 16.5625 1.125 C17.63661133 1.13080078 17.63661133 1.13080078 18.73242188 1.13671875 C23.25367635 1.12849081 27.53905679 0.73860558 32 0 C26.85199904 25.21736513 26.85199904 25.21736513 25 30 C21.96570323 31.51714839 18.82398333 31.14363916 15.5 31.125 C14.81035156 31.12886719 14.12070312 31.13273437 13.41015625 31.13671875 C8.25333293 31.12666646 8.25333293 31.12666646 6 30 C5.22216797 27.56323242 5.22216797 27.56323242 4.4921875 24.35546875 C4.22792969 23.20369141 3.96367187 22.05191406 3.69140625 20.86523438 C3.42199219 19.65158203 3.15257812 18.43792969 2.875 17.1875 C2.59785156 15.98544922 2.32070313 14.78339844 2.03515625 13.54492188 C0 4.55715055 0 4.55715055 0 0 Z " fill="#FCCCBD" transform="translate(385,393)"/>
<path d="M0 0 C1.90751172 2.86126758 2.43105737 4.29475892 3.0703125 7.5625 C3.24433594 8.44164062 3.41835937 9.32078125 3.59765625 10.2265625 C3.77167969 11.14179688 3.94570312 12.05703125 4.125 13 C4.30675781 13.91523438 4.48851563 14.83046875 4.67578125 15.7734375 C6 22.56379229 6 22.56379229 6 26 C2.37 26 -1.26 26 -5 26 C-3.77696248 17.20851853 -2.11620945 8.62002651 0 0 Z " fill="#EE5E68" transform="translate(112,212)"/>
<path d="M0 0 C3.3 0 6.6 0 10 0 C8.73654179 7.48356017 7.11453104 14.71191634 5 22 C3.10705142 18.6338436 2.23447973 15.31729781 1.375 11.5625 C1.11460937 10.45003906 0.85421875 9.33757812 0.5859375 8.19140625 C0 5 0 5 0 0 Z " fill="#7CA6D9" transform="translate(396,440)"/>
<path d="M0 0 C0.66 0.33 1.32 0.66 2 1 C1.41892368 4.7602985 0.34800504 7.53035032 -1.5625 10.8125 C-2.01753906 11.60269531 -2.47257813 12.39289063 -2.94140625 13.20703125 C-3.46541016 14.09455078 -3.46541016 14.09455078 -4 15 C-6.375 14.25 -6.375 14.25 -9 13 C-9.66 11.68 -10.32 10.36 -11 9 C-7.37 6.03 -3.74 3.06 0 0 Z " fill="#E2E3E3" transform="translate(137,159)"/>
<path d="M0 0 C4.27454425 2.7479213 8.14126153 5.69250989 12 9 C10.86525052 12.40424844 10.03188696 13.21653709 7 15 C4 14 4 14 2.578125 11.85546875 C2.13984375 10.97503906 1.7015625 10.09460938 1.25 9.1875 C0.80140625 8.31480469 0.3528125 7.44210938 -0.109375 6.54296875 C-1.06982104 3.80064256 -1.02018585 2.6686569 0 0 Z " fill="#E6E7E8" transform="translate(87,159)"/>
<path d="M0 0 C0.99 0 1.98 0 3 0 C3 5.28 3 10.56 3 16 C1.68 15.67 0.36 15.34 -1 15 C-1.02685412 12.68756208 -1.04632841 10.3750373 -1.0625 8.0625 C-1.07410156 6.77472656 -1.08570313 5.48695312 -1.09765625 4.16015625 C-1 1 -1 1 0 0 Z " fill="#CCA598" transform="translate(57,82)"/>
<path d="M0 0 C0.99 0 1.98 0 3 0 C3 5.28 3 10.56 3 16 C2.01 16 1.02 16 0 16 C0 10.72 0 5.44 0 0 Z " fill="#E8BBAD" transform="translate(165,82)"/>
<path d="M0 0 C3.63 0 7.26 0 11 0 C9.35 1.65 7.7 3.3 6 5 C3.98079663 3.69593116 1.98075027 2.36176581 0 1 C0 0.67 0 0.34 0 0 Z " fill="#F0C2B4" transform="translate(107,154)"/>
</svg>
